<?xml version="1.0" encoding="utf-8"?>
<svg viewBox="0 0 48 48" fill="#364568" xmlns="http://www.w3.org/2000/svg">
  <path d="M 23.999 43 C 23.637 43 23.282 42.891 22.982 42.686 L 5.783 31.297 C 5.58 31.184 5.407 31.021 5.28 30.826 L 5.28 30.749 C 5.097 30.447 5 30.101 5 29.748 L 5 18.216 C 5.002 17.869 5.099 17.529 5.28 17.231 L 5.28 17.137 C 5.413 16.951 5.583 16.796 5.783 16.683 L 22.982 5.293 C 23.603 4.903 24.393 4.903 25.016 5.293 L 42.217 16.683 C 42.416 16.796 42.587 16.951 42.717 17.137 C 42.724 17.164 42.724 17.189 42.717 17.214 C 42.899 17.513 42.996 17.853 43 18.2 L 43 29.732 C 42.998 30.085 42.901 30.431 42.717 30.733 L 42.717 30.81 C 42.589 31.003 42.416 31.164 42.217 31.281 L 25.016 42.67 C 24.719 42.881 24.364 42.996 23.999 43 Z M 25.797 30.733 L 25.797 37.852 L 37.963 29.763 L 32.601 26.149 L 25.797 30.733 Z M 10.034 29.763 L 22.201 37.852 L 22.201 30.733 L 15.399 26.149 L 10.034 29.763 Z M 18.621 23.99 L 23.999 27.604 L 29.379 23.99 L 23.999 20.361 L 18.621 23.99 Z M 35.821 23.99 L 39.402 26.399 L 39.402 21.581 L 35.821 23.99 Z M 8.596 21.581 L 8.596 26.399 L 12.176 23.99 L 8.596 21.581 Z M 25.797 17.247 L 32.601 21.815 L 37.963 18.216 L 25.797 10.128 L 25.797 17.247 Z M 10.034 18.216 L 15.399 21.815 L 22.201 17.247 L 22.201 10.128 L 10.034 18.216 Z" style="fill: rgb(180, 180, 180);"/>
</svg>